G04 --- HEADER BEGIN --- *
G04 #@! TF.GenerationSoftware,LibrePCB,LibrePCB,1.2.0*
G04 #@! TF.CreationDate,2025-03-23T20:27:52*
G04 #@! TF.ProjectId,2.35" TFT Display Breakout,2d7378a2-86a6-4676-ae60-d25c5b1dbf0f,v1*
G04 #@! TF.Part,Single*
G04 #@! TF.SameCoordinates*
G04 #@! TF.FileFunction,Paste,Top*
G04 #@! TF.FilePolarity,Positive*
%FSLAX66Y66*%
%MOMM*%
G01*
G75*
G04 --- HEADER END --- *
G04 --- APERTURE LIST BEGIN --- *
%AMROUNDEDRECT10*20,1,0.64,-0.45,0.0,0.45,0.0,0.0*20,1,0.4,-0.57,0.0,0.57,0.0,0.0*1,1,0.24,-0.45,0.2*1,1,0.24,0.45,0.2*1,1,0.24,0.45,-0.2*1,1,0.24,-0.45,-0.2*%
%ADD10ROUNDEDRECT10*%
%ADD11R,1.1X0.6*%
%AMROUNDEDRECT12*20,1,0.56,-1.575,0.0,1.575,0.0,0.0*20,1,0.35,-1.68,0.0,1.68,0.0,0.0*1,1,0.21,-1.575,0.175*1,1,0.21,1.575,0.175*1,1,0.21,1.575,-0.175*1,1,0.21,-1.575,-0.175*%
%ADD12ROUNDEDRECT12*%
%ADD13R,0.76X1.06*%
%AMROUNDEDRECT14*20,1,0.48,-0.85,0.0,0.85,0.0,0.0*20,1,0.3,-0.94,0.0,0.94,0.0,0.0*1,1,0.18,-0.85,0.15*1,1,0.18,0.85,0.15*1,1,0.18,0.85,-0.15*1,1,0.18,-0.85,-0.15*%
%ADD14ROUNDEDRECT14*%
%AMROUNDEDRECT15*20,1,0.48,-0.4,0.0,0.4,0.0,90.0*20,1,0.3,-0.49,0.0,0.49,0.0,90.0*1,1,0.18,-0.15,-0.4*1,1,0.18,-0.15,0.4*1,1,0.18,0.15,0.4*1,1,0.18,0.15,-0.4*%
%ADD15ROUNDEDRECT15*%
%ADD16R,0.6X1.1*%
G04 --- APERTURE LIST END --- *
G04 --- BOARD BEGIN --- *
D10*
G04 #@! TO.C,Q1*
X40100000Y21450000D03*
X37900000Y20500000D03*
X40100000Y19550000D03*
D11*
G04 #@! TO.C,R2*
X42700000Y17575000D03*
X42700000Y19525000D03*
D12*
G04 #@! TO.C,IC2*
X20750000Y15300000D03*
X20750000Y11700000D03*
X20750000Y16500000D03*
X20750000Y17700000D03*
X20750000Y18900000D03*
X20750000Y12900000D03*
X20750000Y8100000D03*
X20750000Y10500000D03*
X20750000Y14100000D03*
X20750000Y9300000D03*
D13*
G04 #@! TO.C,C1*
X39974000Y8113000D03*
X41724000Y8113000D03*
D14*
G04 #@! TO.C,U1*
X29000000Y13885000D03*
X34000000Y12615000D03*
X29000000Y10075000D03*
X29000000Y8805000D03*
X34000000Y15155000D03*
X29000000Y17695000D03*
X29000000Y16425000D03*
X34000000Y17695000D03*
X29000000Y12615000D03*
X34000000Y16425000D03*
X34000000Y10075000D03*
X34000000Y13885000D03*
X34000000Y11345000D03*
X34000000Y8805000D03*
X29000000Y11345000D03*
X29000000Y15155000D03*
D15*
G04 #@! TO.C,IC1*
X38050000Y12800000D03*
X39950000Y10000000D03*
X39000000Y10000000D03*
X38050000Y10000000D03*
X39950000Y12800000D03*
D16*
G04 #@! TO.C,R1*
X32350000Y20500000D03*
X30400000Y20500000D03*
D13*
G04 #@! TO.C,C2*
X38075000Y14500000D03*
X39825000Y14500000D03*
G04 --- BOARD END --- *
G04 #@! TF.MD5,f0c1c8a3fc6d810ff39c442c4723bab3*
M02*
